<?xml version="1.0" encoding="UTF-8" standalone="no"?><!-- Generator: Gravit.io --><svg xmlns="http://www.w3.org/2000/svg" xmlns:xlink="http://www.w3.org/1999/xlink" style="isolation:isolate" viewBox="0 0 535 200" width="535pt" height="200pt"><defs><clipPath id="_clipPath_JWo0ShAFIf5wZvWLCVTqBNPA1b6e6OFu"><rect width="535" height="200"/></clipPath></defs><g clip-path="url(#_clipPath_JWo0ShAFIf5wZvWLCVTqBNPA1b6e6OFu)"><g><g><path d=" M 8 137.645 L 8 111.045 L 33.95 111.145 L 34 164.145 L 8 164.145 L 8 137.645 Z " fill="rgb(237,50,61)"/><path d=" M 8 35.645 L 8 9.145 L 21 9.145 L 34 9.145 L 34 35.645 L 34 62.145 L 21 62.145 L 8 62.145 L 8 35.645 Z " fill="rgb(237,50,61)"/></g><g><path d=" M 61 137.645 L 61 111.145 L 86.5 111.145 L 112 111.145 L 112 60.145 L 112 9.145 L 125.5 9.145 L 139 9.145 L 139 86.645 L 139 164.145 L 100 164.145 L 61 164.145 L 61 137.645 Z " fill="rgb(0,177,192)"/></g><g><path d=" M 33.8 111.145 L 60 111.145 L 60 164.145 L 34 164.145 L 33.8 111.145 Z " fill="rgb(250,66,81)"/><path d=" M 34 9.145 L 60 9.145 L 60 62.145 L 47 62.145 L 34 62.145 L 34 9.145 Z " fill="rgb(250,66,81)"/></g><g><path d=" M 268 113.145 L 268 62.145 L 242.5 62.145 L 217 62.145 L 217.15 9.345 L 256 9.145 L 295 9.145 L 295 86.645 L 295 164.145 L 281.5 164.145 L 268 164.145 L 268 113.145 Z " fill="rgb(119,192,87)"/></g><g><path d=" M 139 86.645 L 139 9.145 L 216 9.145 L 215.5 61.645 L 190.3 61.945 L 165 62.145 L 165 113.145 L 165 164.145 L 152 164.145 L 139 164.145 L 139 86.645 Z " fill="rgb(0,194,209)"/></g><g><path d=" M 295 86.645 L 295 9.145 L 333.5 9.145 L 372 9.145 L 372 35.645 L 372 62.245 L 346.5 61.945 L 321 61.645 L 321 112.945 L 321 164.145 L 308 164.145 L 295 164.145 L 295 86.645 Z " fill="rgb(131,209,96)"/></g><g><path d=" M 373 86.645 L 373 9.145 L 411.5 9.145 L 450 9.145 L 450 62.245 L 437.5 61.945 L 425 61.645 L 425 86.945 L 425 112.145 L 437.5 112.145 L 450 112.145 L 450 138.145 L 450 164.145 L 411.5 164.145 L 373 164.145 L 373 86.645 Z " fill="rgb(245,185,79)"/><path d=" M 475.5 111.845 C 475.2 111.145 475.1 99.345 475.2 85.645 L 475.5 60.645 L 488.8 60.345 L 502 60.045 L 502 86.645 L 502 113.145 L 489 113.145 C 479.4 113.145 475.8 112.845 475.5 111.845 Z " fill="rgb(245,185,79)"/></g><g><path d=" M 450 112.145 C 468.641 112.32 475.051 112.03 475.8 112.645 C 476.7 113.545 477 120.545 477 138.845 L 477 164.145 L 463.5 164.145 L 450 164.145 C 449.475 128.711 449.819 111.921 450 112.145 Z " fill="rgb(250,202,87)"/><path d=" M 502 86.645 L 502 60.045 L 515.3 60.345 L 528.5 60.645 L 528.5 86.645 L 528.5 112.645 L 515.3 112.945 L 502 113.245 L 502 86.645 Z " fill="rgb(250,202,87)"/><path d=" M 450 9.145 L 463.5 9.145 L 477 9.145 L 477 34.445 C 477 52.745 476.7 60.045 475.8 60.945 C 475 61.745 470.5 62.145 462.3 62.145 L 450 62.145 L 450 9.145 Z " fill="rgb(250,202,87)"/></g></g><path d=" M 446.743 190.441 L 446.743 172.591 L 457.045 172.591 L 459.85 175.396 L 459.85 187.636 L 457.045 190.441 L 446.743 190.441 Z  M 448.68 188.707 L 456.178 188.707 L 457.911 186.999 L 457.911 176.034 L 456.178 174.325 L 448.68 174.325 L 448.68 188.707 Z  M 465.638 190.441 L 463.292 188.095 L 463.292 180.088 L 465.638 177.742 L 472.039 177.742 L 474.41 180.088 L 474.41 184.653 L 465.179 184.653 L 465.179 187.508 L 466.454 188.758 L 471.222 188.758 L 472.497 187.508 L 472.497 186.54 L 474.385 186.54 L 474.385 188.095 L 472.039 190.441 L 465.638 190.441 Z  M 465.179 183.021 L 472.523 183.021 L 472.523 180.674 L 471.248 179.425 L 466.454 179.425 L 465.179 180.674 L 465.179 183.021 Z  M 479.306 190.441 L 477.215 188.35 L 477.215 186.769 L 479.102 186.769 L 479.102 187.814 L 480.122 188.809 L 484.814 188.809 L 485.834 187.814 L 485.834 185.851 L 484.814 184.831 L 479.332 184.831 L 477.317 182.816 L 477.317 179.833 L 479.408 177.742 L 485.375 177.742 L 487.466 179.833 L 487.466 181.414 L 485.579 181.414 L 485.579 180.368 L 484.559 179.374 L 480.224 179.374 L 479.204 180.368 L 479.204 182.23 L 480.224 183.25 L 485.63 183.25 L 487.721 185.341 L 487.721 188.35 L 485.63 190.441 L 479.306 190.441 Z  M 491.546 175.6 L 490.781 174.835 L 490.781 173.713 L 491.546 172.948 L 492.668 172.948 L 493.433 173.713 L 493.433 174.835 L 492.668 175.6 L 491.546 175.6 Z  M 491.164 190.441 L 491.164 177.742 L 493.05 177.742 L 493.05 190.441 L 491.164 190.441 Z  M 506.26 177.742 L 508.096 177.742 L 508.096 193.68 L 505.775 196 L 499.476 196 L 497.513 194.036 L 497.513 192.481 L 499.4 192.481 L 499.4 193.424 L 500.293 194.317 L 504.934 194.317 L 506.208 193.068 L 506.208 188.325 L 503.862 190.441 L 499.222 190.441 L 496.876 188.095 L 496.876 180.088 L 499.222 177.742 L 504.041 177.742 L 506.26 179.961 L 506.26 177.742 Z  M 506.208 186.284 L 506.208 182.103 L 503.531 179.425 L 500.038 179.425 L 498.763 180.674 L 498.763 187.508 L 500.038 188.758 L 503.557 188.758 L 506.208 186.284 Z  M 511.921 190.441 L 511.921 177.742 L 513.757 177.742 L 513.757 180.445 L 516.46 177.742 L 520.361 177.742 L 522.707 180.088 L 522.707 190.441 L 520.82 190.441 L 520.82 180.674 L 519.545 179.425 L 516.969 179.425 L 513.807 182.587 L 513.807 190.441 L 511.921 190.441 Z  M 398.777 190.441 L 396.686 188.35 L 396.686 185.112 L 398.777 183.046 L 405.56 183.046 L 405.56 180.624 L 404.285 179.374 L 399.95 179.374 L 398.675 180.624 L 398.675 181.669 L 396.788 181.669 L 396.788 180.088 L 399.134 177.742 L 405.075 177.742 L 407.421 180.088 L 407.421 190.441 L 405.611 190.441 L 405.611 188.197 L 403.265 190.441 L 398.777 190.441 Z  M 399.593 188.809 L 402.882 188.809 L 405.56 186.234 L 405.56 184.678 L 399.593 184.678 L 398.573 185.672 L 398.573 187.814 L 399.593 188.809 Z  M 411.119 190.441 L 411.119 177.742 L 412.955 177.742 L 412.955 180.445 L 415.658 177.742 L 419.559 177.742 L 421.906 180.088 L 421.906 190.441 L 420.019 190.441 L 420.019 180.674 L 418.743 179.425 L 416.168 179.425 L 413.006 182.587 L 413.006 190.441 L 411.119 190.441 Z  M 427.694 190.441 L 425.348 188.095 L 425.348 180.088 L 427.694 177.742 L 432.59 177.742 L 434.681 179.578 L 434.681 172.234 L 436.568 172.234 L 436.568 190.441 L 434.732 190.441 L 434.732 188.12 L 432.411 190.441 L 427.694 190.441 Z  M 428.51 188.758 L 432.003 188.758 L 434.681 186.081 L 434.681 181.567 L 432.233 179.425 L 428.51 179.425 L 427.235 180.674 L 427.235 187.508 L 428.51 188.758 Z  M 261.842 190.441 L 261.842 174.299 L 256.436 174.299 L 256.436 172.591 L 269.186 172.591 L 269.186 174.299 L 263.78 174.299 L 263.78 190.441 L 261.842 190.441 Z  M 271.66 190.441 L 269.313 188.095 L 269.313 180.088 L 271.66 177.742 L 278.06 177.742 L 280.432 180.088 L 280.432 184.653 L 271.2 184.653 L 271.2 187.508 L 272.476 188.758 L 277.244 188.758 L 278.519 187.508 L 278.519 186.54 L 280.406 186.54 L 280.406 188.095 L 278.06 190.441 L 271.66 190.441 Z  M 271.2 183.021 L 278.545 183.021 L 278.545 180.674 L 277.269 179.425 L 272.476 179.425 L 271.2 180.674 L 271.2 183.021 Z  M 285.965 190.441 L 283.619 188.095 L 283.619 180.088 L 285.965 177.742 L 292.085 177.742 L 294.431 180.088 L 294.431 181.644 L 292.544 181.644 L 292.544 180.674 L 291.269 179.425 L 286.781 179.425 L 285.506 180.674 L 285.506 187.508 L 286.781 188.758 L 291.269 188.758 L 292.544 187.508 L 292.544 186.54 L 294.431 186.54 L 294.431 188.095 L 292.085 190.441 L 285.965 190.441 Z  M 297.491 190.441 L 297.491 172.234 L 299.378 172.234 L 299.378 180.394 L 302.03 177.742 L 305.983 177.742 L 308.329 180.088 L 308.329 190.441 L 306.441 190.441 L 306.441 180.674 L 305.166 179.425 L 302.54 179.425 L 299.378 182.587 L 299.378 190.441 L 297.491 190.441 Z  M 312.026 190.441 L 312.026 177.742 L 313.862 177.742 L 313.862 180.445 L 316.565 177.742 L 320.467 177.742 L 322.812 180.088 L 322.812 190.441 L 320.925 190.441 L 320.925 180.674 L 319.651 179.425 L 317.075 179.425 L 313.913 182.587 L 313.913 190.441 L 312.026 190.441 Z  M 328.601 190.441 L 326.255 188.095 L 326.255 180.088 L 328.601 177.742 L 335.129 177.742 L 337.475 180.088 L 337.475 188.095 L 335.129 190.441 L 328.601 190.441 Z  M 329.417 188.758 L 334.313 188.758 L 335.588 187.508 L 335.588 180.674 L 334.313 179.425 L 329.417 179.425 L 328.142 180.674 L 328.142 187.508 L 329.417 188.758 Z  M 341.173 190.441 L 341.173 172.234 L 343.059 172.234 L 343.059 190.441 L 341.173 190.441 Z  M 349.103 190.441 L 346.757 188.095 L 346.757 180.088 L 349.103 177.742 L 355.631 177.742 L 357.977 180.088 L 357.977 188.095 L 355.631 190.441 L 349.103 190.441 Z  M 349.919 188.758 L 354.815 188.758 L 356.09 187.508 L 356.09 180.674 L 354.815 179.425 L 349.919 179.425 L 348.644 180.674 L 348.644 187.508 L 349.919 188.758 Z  M 370.676 177.742 L 372.512 177.742 L 372.512 193.68 L 370.191 196 L 363.893 196 L 361.929 194.036 L 361.929 192.481 L 363.816 192.481 L 363.816 193.424 L 364.709 194.317 L 369.35 194.317 L 370.625 193.068 L 370.625 188.325 L 368.279 190.441 L 363.638 190.441 L 361.292 188.095 L 361.292 180.088 L 363.638 177.742 L 368.458 177.742 L 370.676 179.961 L 370.676 177.742 Z  M 370.625 186.284 L 370.625 182.103 L 367.947 179.425 L 364.454 179.425 L 363.179 180.674 L 363.179 187.508 L 364.454 188.758 L 367.973 188.758 L 370.625 186.284 Z  M 385.135 177.742 L 387.022 177.742 L 387.022 193.68 L 384.675 196 L 378.555 196 L 376.592 194.036 L 376.592 192.481 L 378.479 192.481 L 378.479 193.45 L 379.372 194.317 L 383.859 194.317 L 385.135 193.068 L 385.135 187.738 L 382.432 190.441 L 378.555 190.441 L 376.209 188.095 L 376.209 177.742 L 378.097 177.742 L 378.097 187.508 L 379.372 188.758 L 381.921 188.758 L 385.135 185.545 L 385.135 177.742 Z  M 151.988 190.441 L 149.642 188.095 L 149.642 186.463 L 151.555 186.463 L 151.555 187.457 L 152.779 188.707 L 158.899 188.707 L 160.173 187.407 L 160.173 183.403 L 158.899 182.153 L 152.039 182.153 L 149.693 179.808 L 149.693 174.937 L 152.039 172.591 L 159.536 172.591 L 161.882 174.937 L 161.882 176.594 L 159.995 176.594 L 159.995 175.575 L 158.72 174.325 L 152.88 174.325 L 151.606 175.575 L 151.606 179.17 L 152.88 180.42 L 159.74 180.42 L 162.086 182.765 L 162.086 188.044 L 159.689 190.441 L 151.988 190.441 Z  M 174.326 177.742 L 176.213 177.742 L 176.213 193.68 L 173.867 196 L 167.747 196 L 165.783 194.036 L 165.783 192.481 L 167.671 192.481 L 167.671 193.45 L 168.563 194.317 L 173.051 194.317 L 174.326 193.068 L 174.326 187.738 L 171.623 190.441 L 167.747 190.441 L 165.401 188.095 L 165.401 177.742 L 167.288 177.742 L 167.288 187.508 L 168.563 188.758 L 171.113 188.758 L 174.326 185.545 L 174.326 177.742 Z  M 181.492 190.441 L 179.401 188.35 L 179.401 186.769 L 181.287 186.769 L 181.287 187.814 L 182.307 188.809 L 186.999 188.809 L 188.02 187.814 L 188.02 185.851 L 186.999 184.831 L 181.517 184.831 L 179.503 182.816 L 179.503 179.833 L 181.593 177.742 L 187.561 177.742 L 189.652 179.833 L 189.652 181.414 L 187.764 181.414 L 187.764 180.368 L 186.744 179.374 L 182.41 179.374 L 181.389 180.368 L 181.389 182.23 L 182.41 183.25 L 187.815 183.25 L 189.906 185.341 L 189.906 188.35 L 187.815 190.441 L 181.492 190.441 Z  M 196.587 190.441 L 194.242 188.095 L 194.242 179.4 L 191.947 179.4 L 191.947 177.742 L 194.292 177.742 L 194.292 173.611 L 196.128 173.611 L 196.128 177.742 L 200.106 177.742 L 200.106 179.4 L 196.128 179.4 L 196.128 187.508 L 197.404 188.784 L 200.106 188.784 L 200.106 190.441 L 196.587 190.441 Z  M 204.748 190.441 L 202.402 188.095 L 202.402 180.088 L 204.748 177.742 L 211.148 177.742 L 213.52 180.088 L 213.52 184.653 L 204.289 184.653 L 204.289 187.508 L 205.563 188.758 L 210.332 188.758 L 211.607 187.508 L 211.607 186.54 L 213.494 186.54 L 213.494 188.095 L 211.148 190.441 L 204.748 190.441 Z  M 204.289 183.021 L 211.632 183.021 L 211.632 180.674 L 210.358 179.425 L 205.563 179.425 L 204.289 180.674 L 204.289 183.021 Z  M 216.962 190.441 L 216.962 177.742 L 218.798 177.742 L 218.798 180.19 L 221.246 177.742 L 224.281 177.742 L 226.27 179.731 L 228.259 177.742 L 232.262 177.742 L 234.608 180.088 L 234.608 190.441 L 232.721 190.441 L 232.721 180.674 L 231.446 179.425 L 228.641 179.425 L 226.856 181.21 L 226.856 190.441 L 225.02 190.441 L 225.02 180.674 L 223.745 179.425 L 221.603 179.425 L 218.849 182.179 L 218.849 190.441 L 216.962 190.441 Z  M 239.759 190.441 L 237.668 188.35 L 237.668 186.769 L 239.555 186.769 L 239.555 187.814 L 240.575 188.809 L 245.267 188.809 L 246.287 187.814 L 246.287 185.851 L 245.267 184.831 L 239.785 184.831 L 237.77 182.816 L 237.77 179.833 L 239.861 177.742 L 245.828 177.742 L 247.919 179.833 L 247.919 181.414 L 246.032 181.414 L 246.032 180.368 L 245.012 179.374 L 240.677 179.374 L 239.657 180.368 L 239.657 182.23 L 240.677 183.25 L 246.083 183.25 L 248.174 185.341 L 248.174 188.35 L 246.083 190.441 L 239.759 190.441 Z  M 9.418 190.441 L 9.418 172.591 L 11.356 172.591 L 11.356 190.441 L 9.418 190.441 Z  M 15.436 190.441 L 15.436 177.742 L 17.272 177.742 L 17.272 180.445 L 19.975 177.742 L 23.876 177.742 L 26.222 180.088 L 26.222 190.441 L 24.335 190.441 L 24.335 180.674 L 23.06 179.425 L 20.485 179.425 L 17.322 182.587 L 17.322 190.441 L 15.436 190.441 Z  M 31.067 190.441 L 31.067 179.4 L 28.772 179.4 L 28.772 177.742 L 31.067 177.742 L 31.067 174.911 L 33.285 172.693 L 36.957 172.693 L 36.957 174.325 L 34.102 174.325 L 32.954 175.447 L 32.954 177.742 L 36.957 177.742 L 36.957 179.4 L 32.954 179.4 L 32.954 190.441 L 31.067 190.441 Z  M 41.089 190.441 L 38.742 188.095 L 38.742 180.088 L 41.089 177.742 L 47.617 177.742 L 49.963 180.088 L 49.963 188.095 L 47.617 190.441 L 41.089 190.441 Z  M 41.904 188.758 L 46.8 188.758 L 48.075 187.508 L 48.075 180.674 L 46.8 179.425 L 41.904 179.425 L 40.63 180.674 L 40.63 187.508 L 41.904 188.758 Z  M 53.532 190.441 L 53.532 177.742 L 55.369 177.742 L 55.369 180.012 L 57.638 177.742 L 60.928 177.742 L 60.928 179.425 L 58.123 179.425 L 55.419 182.128 L 55.419 190.441 L 53.532 190.441 Z  M 63.35 190.441 L 63.35 177.742 L 65.186 177.742 L 65.186 180.19 L 67.634 177.742 L 70.668 177.742 L 72.657 179.731 L 74.647 177.742 L 78.65 177.742 L 80.996 180.088 L 80.996 190.441 L 79.109 190.441 L 79.109 180.674 L 77.834 179.425 L 75.029 179.425 L 73.244 181.21 L 73.244 190.441 L 71.408 190.441 L 71.408 180.674 L 70.133 179.425 L 67.991 179.425 L 65.237 182.179 L 65.237 190.441 L 63.35 190.441 Z  M 86.402 190.441 L 84.311 188.35 L 84.311 185.112 L 86.402 183.046 L 93.185 183.046 L 93.185 180.624 L 91.91 179.374 L 87.575 179.374 L 86.3 180.624 L 86.3 181.669 L 84.413 181.669 L 84.413 180.088 L 86.759 177.742 L 92.701 177.742 L 95.046 180.088 L 95.046 190.441 L 93.236 190.441 L 93.236 188.197 L 90.89 190.441 L 86.402 190.441 Z  M 87.218 188.809 L 90.508 188.809 L 93.185 186.234 L 93.185 184.678 L 87.218 184.678 L 86.198 185.672 L 86.198 187.814 L 87.218 188.809 Z  M 101.983 190.441 L 99.637 188.095 L 99.637 179.4 L 97.342 179.4 L 97.342 177.742 L 99.688 177.742 L 99.688 173.611 L 101.524 173.611 L 101.524 177.742 L 105.501 177.742 L 105.501 179.4 L 101.524 179.4 L 101.524 187.508 L 102.799 188.784 L 105.501 188.784 L 105.501 190.441 L 101.983 190.441 Z  M 109.071 175.6 L 108.306 174.835 L 108.306 173.713 L 109.071 172.948 L 110.193 172.948 L 110.958 173.713 L 110.958 174.835 L 110.193 175.6 L 109.071 175.6 Z  M 108.689 190.441 L 108.689 177.742 L 110.576 177.742 L 110.576 190.441 L 108.689 190.441 Z  M 116.747 190.441 L 114.401 188.095 L 114.401 180.088 L 116.747 177.742 L 123.275 177.742 L 125.621 180.088 L 125.621 188.095 L 123.275 190.441 L 116.747 190.441 Z  M 117.563 188.758 L 122.459 188.758 L 123.734 187.508 L 123.734 180.674 L 122.459 179.425 L 117.563 179.425 L 116.288 180.674 L 116.288 187.508 L 117.563 188.758 Z  M 129.191 190.441 L 129.191 177.742 L 131.027 177.742 L 131.027 180.445 L 133.73 177.742 L 137.632 177.742 L 139.977 180.088 L 139.977 190.441 L 138.091 190.441 L 138.091 180.674 L 136.815 179.425 L 134.24 179.425 L 131.078 182.587 L 131.078 190.441 L 129.191 190.441 Z " fill="rgb(0,0,0)"/></g></svg>