<svg id="euuofl82aev81" xmlns="http://www.w3.org/2000/svg" xmlns:xlink="http://www.w3.org/1999/xlink" viewBox="0 0 535 200" shape-rendering="geometricPrecision" text-rendering="geometricPrecision" width="535" height="200"><style><![CDATA[#euuofl82aev89_to {animation: euuofl82aev89_to__to 3600ms linear infinite normal forwards}@keyframes euuofl82aev89_to__to { 0% {offset-distance: 0%} 11.111111% {offset-distance: 0%} 22.222222% {offset-distance: 16.666667%} 36.111111% {offset-distance: 33.333333%} 47.222222% {offset-distance: 50%} 55.555556% {offset-distance: 66.666667%} 69.444444% {offset-distance: 83.333333%} 83.333333% {offset-distance: 100%} 100% {offset-distance: 100%} }#euuofl82aev89_tr {animation: euuofl82aev89_tr__tr 3600ms linear infinite normal forwards}@keyframes euuofl82aev89_tr__tr { 0% {transform: rotate(0deg)} 13.888889% {transform: rotate(0deg)} 27.777778% {transform: rotate(90.392125deg)} 36.111111% {transform: rotate(138.911482deg)} 47.222222% {transform: rotate(180.371370deg)} 83.333333% {transform: rotate(180deg)} 100% {transform: rotate(180deg)} }#euuofl82aev814_to {animation: euuofl82aev814_to__to 3600ms linear infinite normal forwards}@keyframes euuofl82aev814_to__to { 0% {offset-distance: 0%} 11.111111% {offset-distance: 0%;animation-timing-function: cubic-bezier(0.550000,0.085000,0.680000,0.530000)} 22.222222% {offset-distance: 20%} 33.333333% {offset-distance: 40%} 47.222222% {offset-distance: 60%;animation-timing-function: cubic-bezier(0.550000,0.055000,0.675000,0.190000)} 69.444444% {offset-distance: 80%} 83.333333% {offset-distance: 100%} 100% {offset-distance: 100%} }#euuofl82aev814_tr {animation: euuofl82aev814_tr__tr 3600ms linear infinite normal forwards}@keyframes euuofl82aev814_tr__tr { 0% {transform: rotate(0deg)} 16.666667% {transform: rotate(0deg)} 25% {transform: rotate(90.283341deg)} 33.333333% {transform: rotate(179.920560deg)} 36.111111% {transform: rotate(189.856443deg)} 44.444444% {transform: rotate(180deg)} 83.333333% {transform: rotate(180deg)} 100% {transform: rotate(180deg)} }#euuofl82aev823_to {animation: euuofl82aev823_to__to 3600ms linear infinite normal forwards}@keyframes euuofl82aev823_to__to { 0% {transform: translate(490.418750px,86.595000px)} 8.333333% {transform: translate(496.513935px,86.600000px)} 16.666667% {transform: translate(487.915287px,86.595000px)} 25% {transform: translate(491.915287px,86.595000px)} 33.333333% {transform: translate(490.418750px,86.595000px)} 41.666667% {transform: translate(496.513935px,86.600000px)} 50% {transform: translate(487.915287px,86.595000px)} 58.333333% {transform: translate(491.915287px,86.595000px)} 66.666667% {transform: translate(490.418750px,86.595000px)} 75% {transform: translate(496.513935px,86.600000px)} 83.333333% {transform: translate(487.915287px,86.595000px)} 91.666667% {transform: translate(491.915287px,86.595000px)} 100% {transform: translate(490.418750px,86.595000px)} }#euuofl82aev823_ts {animation: euuofl82aev823_ts__ts 3600ms linear infinite normal forwards}@keyframes euuofl82aev823_ts__ts { 0% {transform: scale(1,1)} 16.666667% {transform: scale(0.813435,1);animation-timing-function: cubic-bezier(0.470000,0,0.745000,0.715000)} 25% {transform: scale(0.813348,1);animation-timing-function: cubic-bezier(0.470000,0,0.745000,0.715000)} 33.333333% {transform: scale(1,1)} 50% {transform: scale(0.813435,1);animation-timing-function: cubic-bezier(0.470000,0,0.745000,0.715000)} 58.333333% {transform: scale(0.813348,1);animation-timing-function: cubic-bezier(0.470000,0,0.745000,0.715000)} 66.666667% {transform: scale(1,1)} 75% {transform: scale(1.247053,1)} 83.333333% {transform: scale(0.999790,1);animation-timing-function: cubic-bezier(0.470000,0,0.745000,0.715000)} 91.666667% {transform: scale(0.739343,1);animation-timing-function: cubic-bezier(0.470000,0,0.745000,0.715000)} 100% {transform: scale(1,1)} }#euuofl82aev826_ts {animation: euuofl82aev826_ts__ts 3600ms linear infinite normal forwards}@keyframes euuofl82aev826_ts__ts { 0% {transform: translate(515.580185px,86.645000px) scale(1,1)} 8.333333% {transform: translate(515.580185px,86.645000px) scale(1.247053,1)} 16.666667% {transform: translate(515.580185px,86.645000px) scale(0.999790,1);animation-timing-function: cubic-bezier(0.470000,0,0.745000,0.715000)} 25% {transform: translate(515.580185px,86.645000px) scale(0.739343,1);animation-timing-function: cubic-bezier(0.470000,0,0.745000,0.715000)} 33.333333% {transform: translate(515.580185px,86.645000px) scale(1,1)} 41.666667% {transform: translate(515.580185px,86.645000px) scale(1.247053,1)} 50% {transform: translate(515.580185px,86.645000px) scale(0.999790,1);animation-timing-function: cubic-bezier(0.470000,0,0.745000,0.715000)} 58.333333% {transform: translate(515.580185px,86.645000px) scale(0.739343,1);animation-timing-function: cubic-bezier(0.470000,0,0.745000,0.715000)} 66.666667% {transform: translate(515.580185px,86.645000px) scale(1,1)} 75% {transform: translate(515.580185px,86.645000px) scale(1.247053,1)} 83.333333% {transform: translate(515.580185px,86.645000px) scale(0.999790,1);animation-timing-function: cubic-bezier(0.470000,0,0.745000,0.715000)} 91.666667% {transform: translate(515.580185px,86.645000px) scale(0.739343,1);animation-timing-function: cubic-bezier(0.470000,0,0.745000,0.715000)} 100% {transform: translate(515.580185px,86.645000px) scale(1,1)} }]]></style><defs><clipPath id="euuofl82aev82"><rect id="euuofl82aev83" width="535" height="200" rx="0" ry="0" fill="rgb(0,0,0)" stroke="none" stroke-width="1"/></clipPath></defs><g id="euuofl82aev84" clip-path="url(#euuofl82aev82)"><g id="euuofl82aev85"><g id="euuofl82aev86"><path id="euuofl82aev87" d="M8,137.645000L8,111.045000L33.950000,111.145000L34,164.145000L8,164.145000L8,137.645000Z" fill="rgb(237,50,61)" stroke="none" stroke-width="1"/><g id="euuofl82aev88"><g id="euuofl82aev89_to" style="offset-path:path('M20.800000,35.645000L34.942491,35.645000C46.239134,35.853785,66.544726,42.335934,57.122945,56.081384C53.922933,59.287206,52.188400,63.165961,46.828511,62.264727Q52.188400,36.665987,46.828511,35.764753Q52.188400,36.665987,46.828511,35.764753Q26.159889,36.510211,20.800000,35.608977');offset-rotate:0deg"><g id="euuofl82aev89_tr" transform="rotate(0)"><path id="euuofl82aev89" d="M8,35.645000L8,9.145000L21,9.145000L34,9.145000L34,35.645000L34,62.145000L21,62.145000L8,62.145000L8,35.645000Z" transform="translate(-21,-35.645000)" fill="rgb(237,50,61)" stroke="none" stroke-width="1"/></g></g></g></g><g id="euuofl82aev810"><path id="euuofl82aev811" d="M61,137.645000L61,111.145000L86.500000,111.145000L112,111.145000L112,60.145000L112,9.145000L125.500000,9.145000L139,9.145000L139,86.645000L139,164.145000L100,164.145000L61,164.145000L61,137.645000Z" transform="matrix(1 0 0 1 0 -0.05000000000001)" fill="rgb(0,177,192)" stroke="none" stroke-width="1"/></g><g id="euuofl82aev812"><path id="euuofl82aev813" d="M33.800000,111.145000L60,111.145000L60,164.145000L34,164.145000L33.800000,111.145000Z" fill="rgb(250,66,81)" stroke="none" stroke-width="1"/><g id="euuofl82aev814_to" style="offset-path:path('M46.590000,35.645000C46.701468,35.687045,66.277027,46.788480,64.615375,60.988978C58.134477,81.520669,36.081877,83.422923,21,66.360042C15.490290,55.855717,18.789627,47.678239,21.036730,35.662999Q18.789627,47.678239,21.036730,35.662999Q44.346129,47.641677,46.593231,35.626437');offset-rotate:0deg"><g id="euuofl82aev814_tr" transform="rotate(0)"><path id="euuofl82aev814" d="M34,9.145000L60,9.145000L60,62.145000L47,62.145000L34,62.145000L34,9.145000Z" transform="translate(-47,-35.645000)" fill="rgb(250,66,81)" stroke="none" stroke-width="1"/></g></g></g><g id="euuofl82aev815"><path id="euuofl82aev816" d="M268,113.145000L268,62.145000L242.500000,62.145000L217,62.145000L217.150000,9.345000L256,9.145000L295,9.145000L295,86.645000L295,164.145000L281.500000,164.145000L268,164.145000L268,113.145000Z" fill="rgb(119,192,87)" stroke="none" stroke-width="1"/></g><g id="euuofl82aev817"><path id="euuofl82aev818" d="M139,86.645000L139,9.145000L216,9.145000L215.500000,61.645000L190.300000,61.945000L165,62.145000L165,113.145000L165,164.145000L152,164.145000L139,164.145000L139,86.645000Z" fill="rgb(0,194,209)" stroke="none" stroke-width="1"/></g><g id="euuofl82aev819"><path id="euuofl82aev820" d="M295,86.645000L295,9.145000L333.500000,9.145000L372,9.145000L372,35.645000L372,62.245000L346.500000,61.945000L321,61.645000L321,112.945000L321,164.145000L308,164.145000L295,164.145000L295,86.645000Z" fill="rgb(131,209,96)" stroke="none" stroke-width="1"/></g><g id="euuofl82aev821"><path id="euuofl82aev822" d="M373,86.645000L373,9.145000L411.500000,9.145000L450,9.145000L450,62.245000L437.500000,61.945000L425,61.645000L425,86.945000L425,112.145000L437.500000,112.145000L450,112.145000L450,138.145000L450,164.145000L411.500000,164.145000L373,164.145000L373,86.645000Z" fill="rgb(245,185,79)" stroke="none" stroke-width="1"/><g id="euuofl82aev823_to" transform="translate(490.418750,86.595000)"><g id="euuofl82aev823_ts" transform="scale(1,1)"><path id="euuofl82aev823" d="M475.577446,111.845000C475.208605,111.145000,475.085658,99.345000,475.208605,85.645000L475.577446,60.645000L491.929374,60.345000L508.158356,60.045000L508.158356,86.645000L508.158356,113.145000L492.175268,113.145000C480.372372,113.145000,475.946286,112.845000,475.577446,111.845000Z" transform="translate(-488.581250,-86.595000)" fill="rgb(245,185,79)" stroke="none" stroke-width="1"/></g></g></g><g id="euuofl82aev824"><path id="euuofl82aev825" d="M450,112.145000C468.641000,112.320000,475.051000,112.030000,475.800000,112.645000C476.700000,113.545000,477,120.545000,477,138.845000L477,164.145000L463.500000,164.145000L450,164.145000C449.475000,128.711000,449.819000,111.921000,450,112.145000Z" fill="rgb(250,202,87)" stroke="none" stroke-width="1"/><g id="euuofl82aev826_ts" transform="translate(515.580185,86.645000) scale(1,1)"><path id="euuofl82aev826" d="M502,86.645000L502,60.045000L515.141223,60.345000L528.183640,60.645000L528.183640,86.645000L528.183640,112.645000L515.141223,112.945000L502,113.245000L502,86.645000Z" transform="translate(-515.250000,-86.645000)" fill="rgb(250,202,87)" stroke="none" stroke-width="1"/></g><path id="euuofl82aev827" d="M450,9.145000L463.500000,9.145000L477,9.145000L477,34.445000C477,52.745000,476.700000,60.045000,475.800000,60.945000C475,61.745000,470.500000,62.145000,462.300000,62.145000L450,62.145000L450,9.145000Z" fill="rgb(250,202,87)" stroke="none" stroke-width="1"/></g></g><path id="euuofl82aev828" d="M446.743000,190.441000L446.743000,172.591000L457.045000,172.591000L459.850000,175.396000L459.850000,187.636000L457.045000,190.441000L446.743000,190.441000ZM448.681000,188.707000L456.178000,188.707000L457.912000,186.998000L457.912000,176.033000L456.178000,174.325000L448.681000,174.325000L448.681000,188.707000ZM465.638000,190.441000L463.292000,188.095000L463.292000,180.088000L465.638000,177.742000L472.039000,177.742000L474.410000,180.088000L474.410000,184.652000L465.179000,184.652000L465.179000,187.508000L466.454000,188.758000L471.223000,188.758000L472.498000,187.508000L472.498000,186.539000L474.385000,186.539000L474.385000,188.095000L472.039000,190.441000L465.638000,190.441000ZM465.179000,183.020000L472.523000,183.020000L472.523000,180.675000L471.248000,179.425000L466.454000,179.425000L465.179000,180.675000L465.179000,183.020000ZM479.306000,190.441000L477.215000,188.350000L477.215000,186.769000L479.102000,186.769000L479.102000,187.814000L480.122000,188.809000L484.814000,188.809000L485.834000,187.814000L485.834000,185.851000L484.814000,184.831000L479.332000,184.831000L477.317000,182.817000L477.317000,179.833000L479.408000,177.742000L485.375000,177.742000L487.466000,179.833000L487.466000,181.414000L485.579000,181.414000L485.579000,180.368000L484.559000,179.374000L480.224000,179.374000L479.204000,180.368000L479.204000,182.230000L480.224000,183.250000L485.630000,183.250000L487.721000,185.341000L487.721000,188.350000L485.630000,190.441000L479.306000,190.441000ZM491.546000,175.600000L490.781000,174.835000L490.781000,173.713000L491.546000,172.948000L492.668000,172.948000L493.433000,173.713000L493.433000,174.835000L492.668000,175.600000L491.546000,175.600000ZM491.164000,190.441000L491.164000,177.742000L493.051000,177.742000L493.051000,190.441000L491.164000,190.441000ZM506.259000,177.742000L508.095000,177.742000L508.095000,193.680000L505.775000,196L499.477000,196L497.513000,194.037000L497.513000,192.481000L499.400000,192.481000L499.400000,193.425000L500.293000,194.317000L504.934000,194.317000L506.208000,193.068000L506.208000,188.325000L503.862000,190.441000L499.221000,190.441000L496.876000,188.095000L496.876000,180.088000L499.221000,177.742000L504.041000,177.742000L506.259000,179.961000L506.259000,177.742000ZM506.208000,186.284000L506.208000,182.103000L503.531000,179.425000L500.037000,179.425000L498.763000,180.675000L498.763000,187.508000L500.037000,188.758000L503.556000,188.758000L506.208000,186.284000ZM511.920000,190.441000L511.920000,177.742000L513.756000,177.742000L513.756000,180.445000L516.459000,177.742000L520.361000,177.742000L522.707000,180.088000L522.707000,190.441000L520.820000,190.441000L520.820000,180.675000L519.545000,179.425000L516.969000,179.425000L513.808000,182.587000L513.808000,190.441000L511.920000,190.441000ZM398.777000,190.441000L396.686000,188.350000L396.686000,185.111000L398.777000,183.046000L405.560000,183.046000L405.560000,180.623000L404.285000,179.374000L399.950000,179.374000L398.675000,180.623000L398.675000,181.669000L396.788000,181.669000L396.788000,180.088000L399.134000,177.742000L405.076000,177.742000L407.422000,180.088000L407.422000,190.441000L405.611000,190.441000L405.611000,188.197000L403.265000,190.441000L398.777000,190.441000ZM399.593000,188.809000L402.883000,188.809000L405.560000,186.234000L405.560000,184.678000L399.593000,184.678000L398.573000,185.672000L398.573000,187.814000L399.593000,188.809000ZM411.119000,190.441000L411.119000,177.742000L412.955000,177.742000L412.955000,180.445000L415.658000,177.742000L419.560000,177.742000L421.906000,180.088000L421.906000,190.441000L420.019000,190.441000L420.019000,180.675000L418.744000,179.425000L416.168000,179.425000L413.006000,182.587000L413.006000,190.441000L411.119000,190.441000ZM427.694000,190.441000L425.348000,188.095000L425.348000,180.088000L427.694000,177.742000L432.590000,177.742000L434.681000,179.578000L434.681000,172.234000L436.568000,172.234000L436.568000,190.441000L434.732000,190.441000L434.732000,188.121000L432.412000,190.441000L427.694000,190.441000ZM428.510000,188.758000L432.004000,188.758000L434.681000,186.080000L434.681000,181.567000L432.233000,179.425000L428.510000,179.425000L427.235000,180.675000L427.235000,187.508000L428.510000,188.758000ZM261.842000,190.441000L261.842000,174.300000L256.436000,174.300000L256.436000,172.591000L269.186000,172.591000L269.186000,174.300000L263.780000,174.300000L263.780000,190.441000L261.842000,190.441000ZM271.660000,190.441000L269.314000,188.095000L269.314000,180.088000L271.660000,177.742000L278.060000,177.742000L280.432000,180.088000L280.432000,184.652000L271.201000,184.652000L271.201000,187.508000L272.476000,188.758000L277.244000,188.758000L278.519000,187.508000L278.519000,186.539000L280.406000,186.539000L280.406000,188.095000L278.060000,190.441000L271.660000,190.441000ZM271.201000,183.020000L278.545000,183.020000L278.545000,180.675000L277.270000,179.425000L272.476000,179.425000L271.201000,180.675000L271.201000,183.020000ZM285.965000,190.441000L283.619000,188.095000L283.619000,180.088000L285.965000,177.742000L292.085000,177.742000L294.431000,180.088000L294.431000,181.644000L292.544000,181.644000L292.544000,180.675000L291.269000,179.425000L286.781000,179.425000L285.506000,180.675000L285.506000,187.508000L286.781000,188.758000L291.269000,188.758000L292.544000,187.508000L292.544000,186.539000L294.431000,186.539000L294.431000,188.095000L292.085000,190.441000L285.965000,190.441000ZM297.491000,190.441000L297.491000,172.234000L299.378000,172.234000L299.378000,180.394000L302.030000,177.742000L305.983000,177.742000L308.329000,180.088000L308.329000,190.441000L306.442000,190.441000L306.442000,180.675000L305.167000,179.425000L302.540000,179.425000L299.378000,182.587000L299.378000,190.441000L297.491000,190.441000ZM312.026000,190.441000L312.026000,177.742000L313.862000,177.742000L313.862000,180.445000L316.565000,177.742000L320.467000,177.742000L322.813000,180.088000L322.813000,190.441000L320.926000,190.441000L320.926000,180.675000L319.651000,179.425000L317.075000,179.425000L313.913000,182.587000L313.913000,190.441000L312.026000,190.441000ZM328.601000,190.441000L326.255000,188.095000L326.255000,180.088000L328.601000,177.742000L335.129000,177.742000L337.475000,180.088000L337.475000,188.095000L335.129000,190.441000L328.601000,190.441000ZM329.417000,188.758000L334.313000,188.758000L335.588000,187.508000L335.588000,180.675000L334.313000,179.425000L329.417000,179.425000L328.142000,180.675000L328.142000,187.508000L329.417000,188.758000ZM341.173000,190.441000L341.173000,172.234000L343.060000,172.234000L343.060000,190.441000L341.173000,190.441000ZM349.103000,190.441000L346.757000,188.095000L346.757000,180.088000L349.103000,177.742000L355.631000,177.742000L357.977000,180.088000L357.977000,188.095000L355.631000,190.441000L349.103000,190.441000ZM349.919000,188.758000L354.815000,188.758000L356.090000,187.508000L356.090000,180.675000L354.815000,179.425000L349.919000,179.425000L348.644000,180.675000L348.644000,187.508000L349.919000,188.758000ZM370.676000,177.742000L372.512000,177.742000L372.512000,193.680000L370.192000,196L363.893000,196L361.930000,194.037000L361.930000,192.481000L363.817000,192.481000L363.817000,193.425000L364.709000,194.317000L369.350000,194.317000L370.625000,193.068000L370.625000,188.325000L368.279000,190.441000L363.638000,190.441000L361.292000,188.095000L361.292000,180.088000L363.638000,177.742000L368.458000,177.742000L370.676000,179.961000L370.676000,177.742000ZM370.625000,186.284000L370.625000,182.103000L367.948000,179.425000L364.454000,179.425000L363.179000,180.675000L363.179000,187.508000L364.454000,188.758000L367.973000,188.758000L370.625000,186.284000ZM385.135000,177.742000L387.022000,177.742000L387.022000,193.680000L384.676000,196L378.556000,196L376.592000,194.037000L376.592000,192.481000L378.479000,192.481000L378.479000,193.450000L379.372000,194.317000L383.860000,194.317000L385.135000,193.068000L385.135000,187.738000L382.432000,190.441000L378.556000,190.441000L376.210000,188.095000L376.210000,177.742000L378.097000,177.742000L378.097000,187.508000L379.372000,188.758000L381.922000,188.758000L385.135000,185.545000L385.135000,177.742000ZM151.988000,190.441000L149.642000,188.095000L149.642000,186.463000L151.555000,186.463000L151.555000,187.457000L152.779000,188.707000L158.899000,188.707000L160.174000,187.407000L160.174000,183.403000L158.899000,182.153000L152.039000,182.153000L149.693000,179.807000L149.693000,174.937000L152.039000,172.591000L159.536000,172.591000L161.882000,174.937000L161.882000,176.594000L159.995000,176.594000L159.995000,175.574000L158.720000,174.325000L152.880000,174.325000L151.606000,175.574000L151.606000,179.170000L152.880000,180.419000L159.740000,180.419000L162.086000,182.765000L162.086000,188.044000L159.689000,190.441000L151.988000,190.441000ZM174.326000,177.742000L176.213000,177.742000L176.213000,193.680000L173.867000,196L167.747000,196L165.783000,194.037000L165.783000,192.481000L167.670000,192.481000L167.670000,193.450000L168.563000,194.317000L173.051000,194.317000L174.326000,193.068000L174.326000,187.738000L171.623000,190.441000L167.747000,190.441000L165.401000,188.095000L165.401000,177.742000L167.288000,177.742000L167.288000,187.508000L168.563000,188.758000L171.113000,188.758000L174.326000,185.545000L174.326000,177.742000ZM181.492000,190.441000L179.401000,188.350000L179.401000,186.769000L181.288000,186.769000L181.288000,187.814000L182.307000,188.809000L186.999000,188.809000L188.020000,187.814000L188.020000,185.851000L186.999000,184.831000L181.517000,184.831000L179.503000,182.817000L179.503000,179.833000L181.593000,177.742000L187.561000,177.742000L189.652000,179.833000L189.652000,181.414000L187.765000,181.414000L187.765000,180.368000L186.745000,179.374000L182.409000,179.374000L181.390000,180.368000L181.390000,182.230000L182.409000,183.250000L187.816000,183.250000L189.907000,185.341000L189.907000,188.350000L187.816000,190.441000L181.492000,190.441000ZM196.588000,190.441000L194.242000,188.095000L194.242000,179.400000L191.947000,179.400000L191.947000,177.742000L194.293000,177.742000L194.293000,173.611000L196.129000,173.611000L196.129000,177.742000L200.107000,177.742000L200.107000,179.400000L196.129000,179.400000L196.129000,187.508000L197.404000,188.783000L200.107000,188.783000L200.107000,190.441000L196.588000,190.441000ZM204.748000,190.441000L202.402000,188.095000L202.402000,180.088000L204.748000,177.742000L211.148000,177.742000L213.520000,180.088000L213.520000,184.652000L204.289000,184.652000L204.289000,187.508000L205.564000,188.758000L210.332000,188.758000L211.607000,187.508000L211.607000,186.539000L213.494000,186.539000L213.494000,188.095000L211.148000,190.441000L204.748000,190.441000ZM204.289000,183.020000L211.633000,183.020000L211.633000,180.675000L210.358000,179.425000L205.564000,179.425000L204.289000,180.675000L204.289000,183.020000ZM216.962000,190.441000L216.962000,177.742000L218.798000,177.742000L218.798000,180.190000L221.246000,177.742000L224.281000,177.742000L226.270000,179.731000L228.259000,177.742000L232.262000,177.742000L234.608000,180.088000L234.608000,190.441000L232.721000,190.441000L232.721000,180.675000L231.446000,179.425000L228.641000,179.425000L226.856000,181.210000L226.856000,190.441000L225.020000,190.441000L225.020000,180.675000L223.745000,179.425000L221.603000,179.425000L218.849000,182.179000L218.849000,190.441000L216.962000,190.441000ZM239.759000,190.441000L237.668000,188.350000L237.668000,186.769000L239.555000,186.769000L239.555000,187.814000L240.575000,188.809000L245.267000,188.809000L246.287000,187.814000L246.287000,185.851000L245.267000,184.831000L239.785000,184.831000L237.770000,182.817000L237.770000,179.833000L239.861000,177.742000L245.828000,177.742000L247.919000,179.833000L247.919000,181.414000L246.032000,181.414000L246.032000,180.368000L245.012000,179.374000L240.677000,179.374000L239.657000,180.368000L239.657000,182.230000L240.677000,183.250000L246.083000,183.250000L248.174000,185.341000L248.174000,188.350000L246.083000,190.441000L239.759000,190.441000ZM9.418000,190.441000L9.418000,172.591000L11.356000,172.591000L11.356000,190.441000L9.418000,190.441000ZM15.436000,190.441000L15.436000,177.742000L17.272000,177.742000L17.272000,180.445000L19.975000,177.742000L23.876000,177.742000L26.222000,180.088000L26.222000,190.441000L24.335000,190.441000L24.335000,180.675000L23.060000,179.425000L20.484000,179.425000L17.323000,182.587000L17.323000,190.441000L15.436000,190.441000ZM31.067000,190.441000L31.067000,179.400000L28.772000,179.400000L28.772000,177.742000L31.067000,177.742000L31.067000,174.912000L33.286000,172.693000L36.958000,172.693000L36.958000,174.325000L34.102000,174.325000L32.954000,175.447000L32.954000,177.742000L36.958000,177.742000L36.958000,179.400000L32.954000,179.400000L32.954000,190.441000L31.067000,190.441000ZM41.089000,190.441000L38.743000,188.095000L38.743000,180.088000L41.089000,177.742000L47.617000,177.742000L49.963000,180.088000L49.963000,188.095000L47.617000,190.441000L41.089000,190.441000ZM41.905000,188.758000L46.801000,188.758000L48.076000,187.508000L48.076000,180.675000L46.801000,179.425000L41.905000,179.425000L40.630000,180.675000L40.630000,187.508000L41.905000,188.758000ZM53.533000,190.441000L53.533000,177.742000L55.369000,177.742000L55.369000,180.011000L57.638000,177.742000L60.928000,177.742000L60.928000,179.425000L58.123000,179.425000L55.420000,182.128000L55.420000,190.441000L53.533000,190.441000ZM63.350000,190.441000L63.350000,177.742000L65.186000,177.742000L65.186000,180.190000L67.634000,177.742000L70.669000,177.742000L72.658000,179.731000L74.647000,177.742000L78.650000,177.742000L80.996000,180.088000L80.996000,190.441000L79.109000,190.441000L79.109000,180.675000L77.834000,179.425000L75.029000,179.425000L73.244000,181.210000L73.244000,190.441000L71.408000,190.441000L71.408000,180.675000L70.133000,179.425000L67.991000,179.425000L65.237000,182.179000L65.237000,190.441000L63.350000,190.441000ZM86.402000,190.441000L84.311000,188.350000L84.311000,185.111000L86.402000,183.046000L93.185000,183.046000L93.185000,180.623000L91.910000,179.374000L87.575000,179.374000L86.300000,180.623000L86.300000,181.669000L84.413000,181.669000L84.413000,180.088000L86.759000,177.742000L92.701000,177.742000L95.047000,180.088000L95.047000,190.441000L93.236000,190.441000L93.236000,188.197000L90.890000,190.441000L86.402000,190.441000ZM87.218000,188.809000L90.508000,188.809000L93.185000,186.234000L93.185000,184.678000L87.218000,184.678000L86.198000,185.672000L86.198000,187.814000L87.218000,188.809000ZM101.983000,190.441000L99.637000,188.095000L99.637000,179.400000L97.342000,179.400000L97.342000,177.742000L99.688000,177.742000L99.688000,173.611000L101.524000,173.611000L101.524000,177.742000L105.502000,177.742000L105.502000,179.400000L101.524000,179.400000L101.524000,187.508000L102.799000,188.783000L105.502000,188.783000L105.502000,190.441000L101.983000,190.441000ZM109.072000,175.600000L108.307000,174.835000L108.307000,173.713000L109.072000,172.948000L110.194000,172.948000L110.959000,173.713000L110.959000,174.835000L110.194000,175.600000L109.072000,175.600000ZM108.689000,190.441000L108.689000,177.742000L110.576000,177.742000L110.576000,190.441000L108.689000,190.441000ZM116.747000,190.441000L114.401000,188.095000L114.401000,180.088000L116.747000,177.742000L123.275000,177.742000L125.621000,180.088000L125.621000,188.095000L123.275000,190.441000L116.747000,190.441000ZM117.563000,188.758000L122.459000,188.758000L123.734000,187.508000L123.734000,180.675000L122.459000,179.425000L117.563000,179.425000L116.288000,180.675000L116.288000,187.508000L117.563000,188.758000ZM129.191000,190.441000L129.191000,177.742000L131.027000,177.742000L131.027000,180.445000L133.730000,177.742000L137.632000,177.742000L139.978000,180.088000L139.978000,190.441000L138.091000,190.441000L138.091000,180.675000L136.816000,179.425000L134.240000,179.425000L131.078000,182.587000L131.078000,190.441000L129.191000,190.441000Z" fill="rgb(0,0,0)" stroke="none" stroke-width="1"/></g></svg>